<svg width="21" height="19" viewBox="0 0 21 19" fill="none" xmlns="http://www.w3.org/2000/svg">
<g opacity="0.5">
<path d="M1.11941 0.868755C0.771245 0.92982 0.459473 1.13999 0.252676 1.45304C0.045879 1.76609 -0.0390032 2.15637 0.0167025 2.53803C0.0724083 2.91968 0.264139 3.26145 0.549715 3.48814C0.835292 3.71483 1.19132 3.80788 1.53948 3.74681H5.47771L5.714 4.46633L6.79045 8.0639L7.8669 11.6615C7.97192 12.0356 8.41825 12.381 8.75956 12.381H17.9488C18.3163 12.381 18.7364 12.0356 18.8414 11.6615L20.9681 4.46633C21.0731 4.09218 20.9156 3.74681 20.548 3.74681H8.89084L7.89315 1.67461C7.78689 1.43677 7.62281 1.23568 7.41899 1.0935C7.21516 0.951311 6.9795 0.873543 6.73794 0.868755L1.48697 0.868755C1.40837 0.860968 1.32928 0.860968 1.25068 0.868755C1.19822 0.865298 1.14561 0.865298 1.09315 0.868755L1.11941 0.868755ZM9.41593 15.259C8.6808 15.259 8.10319 15.8922 8.10319 16.6981C8.10319 17.5039 8.6808 18.1371 9.41593 18.1371C10.1511 18.1371 10.7287 17.5039 10.7287 16.6981C10.7287 15.8922 10.1511 15.259 9.41593 15.259ZM17.2924 15.259C16.5572 15.259 15.9796 15.8922 15.9796 16.6981C15.9796 17.5039 16.5572 18.1371 17.2924 18.1371C18.0275 18.1371 18.6051 17.5039 18.6051 16.6981C18.6051 15.8922 18.0275 15.259 17.2924 15.259Z" fill="black"/>
</g>
</svg>
