<svg width="22" height="21" viewBox="0 0 22 21" fill="none" xmlns="http://www.w3.org/2000/svg">
<path d="M9.47419 0.0260145C4.24985 0.0260145 0 4.11029 0 9.13108C0 14.1519 4.24985 18.2362 9.47419 18.2362C11.0713 18.2362 12.6413 17.872 13.9677 17.1696C14.0739 17.2924 14.1917 17.4056 14.3196 17.5077L17.0265 20.1092C17.2764 20.3795 17.5812 20.5978 17.9222 20.7508C18.2631 20.9038 18.633 20.9882 19.0091 20.9989C19.3852 21.0095 19.7596 20.9461 20.1093 20.8127C20.459 20.6792 20.7766 20.4785 21.0427 20.2228C21.3087 19.9671 21.5176 19.6619 21.6565 19.3258C21.7953 18.9897 21.8612 18.6299 21.8502 18.2684C21.8391 17.907 21.7513 17.5515 21.5921 17.2239C21.4329 16.8962 21.2057 16.6033 20.9244 16.3631L18.2175 13.7617C18.0857 13.6349 17.9405 13.5216 17.7844 13.4235C18.5153 12.1488 18.9755 10.6659 18.9755 9.10507C18.9755 4.08427 14.7256 0 9.50126 0L9.47419 0.0260145ZM9.47419 2.62746C13.2368 2.62746 16.2415 5.51507 16.2415 9.13108C16.2415 10.848 15.5918 12.4349 14.4549 13.6056C14.4278 13.6316 14.4008 13.6576 14.3737 13.6836C14.2458 13.7857 14.1281 13.8989 14.0218 14.0218C12.8308 15.0624 11.2066 15.6607 9.44712 15.6607C5.68452 15.6607 2.67984 12.7731 2.67984 9.1571C2.67984 5.54108 5.68452 2.65348 9.44712 2.65348L9.47419 2.62746Z" fill="black" fill-opacity="0.5"/>
</svg>
