<svg width="24" height="20" viewBox="0 0 24 20" fill="none" xmlns="http://www.w3.org/2000/svg">
<path d="M1.23124 0.506423C0.848298 0.573589 0.505377 0.804762 0.27792 1.14909C0.0504626 1.49341 -0.0428999 1.92269 0.0183712 2.34247C0.0796423 2.76225 0.290528 3.13816 0.604636 3.3875C0.918744 3.63684 1.31034 3.73918 1.69329 3.67202H6.02497L6.28487 4.46342L7.46886 8.42041L8.65286 12.3774C8.76837 12.7889 9.25929 13.1688 9.6347 13.1688H19.742C20.1463 13.1688 20.6083 12.7889 20.7238 12.3774L23.0629 4.46342C23.1784 4.05189 23.0052 3.67202 22.6009 3.67202H9.77909L8.68173 1.39279C8.56485 1.13118 8.38438 0.910007 8.1602 0.753617C7.93601 0.597227 7.6768 0.511689 7.41111 0.506423L1.63553 0.506423C1.54907 0.497859 1.46209 0.497859 1.37563 0.506423C1.31793 0.502621 1.26007 0.502621 1.20236 0.506423L1.23124 0.506423ZM10.3567 16.3344C9.54807 16.3344 8.91276 17.0308 8.91276 17.9172C8.91276 18.8036 9.54807 19.5 10.3567 19.5C11.1652 19.5 11.8005 18.8036 11.8005 17.9172C11.8005 17.0308 11.1652 16.3344 10.3567 16.3344ZM19.02 16.3344C18.2114 16.3344 17.5761 17.0308 17.5761 17.9172C17.5761 18.8036 18.2114 19.5 19.02 19.5C19.8286 19.5 20.4639 18.8036 20.4639 17.9172C20.4639 17.0308 19.8286 16.3344 19.02 16.3344Z" fill="black"/>
</svg>
